<?xml version="1.0" standalone="no"?>
<!DOCTYPE svg PUBLIC "-//W3C//DTD SVG 1.1//EN" "http://www.w3.org/Graphics/SVG/1.1/DTD/svg11.dtd">
<svg width="30px" height="30px" version="1.1" xmlns="http://www.w3.org/2000/svg" xmlns:xlink="http://www.w3.org/1999/xlink" xml:space="preserve" style="fill-rule:evenodd;clip-rule:evenodd;stroke-linejoin:round;stroke-miterlimit:1.41421;">
    <g>
        <g id="Layer1">
            <g>
                <path d="M28.9442,15.8385L14.0539,20.8088C13.2475,21.0628 12.9178,21.6533 13.1656,22.3976C13.3396,22.9186 14.6283,26.779 15.3853,29.0466C15.7098,30.0181 16.4285,30.2044 17.2269,29.4063C20.4048,26.2278 28.4365,18.1967 29.5893,17.0435C30.4353,16.1982 29.797,15.5298 28.9442,15.8385Z" style="fill:rgb(43,48,64);fill-rule:nonzero;"/>
            </g>
            <g>
                <path d="M1.03056,14.1598L15.9211,9.18948C16.7276,8.93518 17.0573,8.34472 16.8091,7.60068C16.6355,7.07974 15.3464,3.21991 14.5894,0.951654C14.2653,-0.0197895 13.5466,-0.207036 12.7482,0.591997C9.56965,3.77052 1.53822,11.8016 0.385713,12.9548C-0.459976,13.8001 0.178076,14.4685 1.03056,14.1598Z" style="fill:rgb(43,48,64);fill-rule:nonzero;"/>
            </g>
            <g>
                <path d="M20.7972,15.9331C21.0515,16.7395 21.6417,17.0692 22.3857,16.8211C22.9069,16.6468 26.7674,15.3583 29.0353,14.601C30.0065,14.2766 30.1931,13.5582 29.395,12.7601C26.2165,9.58158 18.1847,1.55046 17.0325,0.397339C16.1862,-0.448044 15.5188,0.1897 15.8269,1.0425L20.7972,15.9331Z" style="fill:rgb(43,48,64);fill-rule:nonzero;"/>
            </g>
            <g>
                <path d="M9.17754,14.0652C8.92356,13.2588 8.33309,12.9288 7.58906,13.1772C7.06811,13.3515 3.20735,14.64 0.939721,15.3973C-0.0314155,15.7217 -0.218042,16.4401 0.580064,17.2382C3.75858,20.4167 11.7903,28.4488 12.9425,29.601C13.7885,30.4473 14.4562,29.8086 14.1482,28.9558L9.17754,14.0652Z" style="fill:rgb(43,48,64);fill-rule:nonzero;"/>
            </g>
            <g>
                <path d="M11.909,14.9996C11.909,16.6996 13.2873,18.0771 14.9874,18.0771C16.6877,18.0771 18.0655,16.6996 18.0655,14.9996C18.0655,13.2987 16.6877,11.9212 14.9874,11.9212C13.2873,11.9212 11.909,13.2987 11.909,14.9996Z" style="fill:rgb(43,48,64);fill-rule:nonzero;"/>
            </g>
        </g>
    </g>
</svg>
