<?xml version="1.0" encoding="utf-8"?>
<svg version="1.1" id="Layer_1" xmlns="http://www.w3.org/2000/svg" xmlns:xlink="http://www.w3.org/1999/xlink" x="0px" y="0px"
	 width="17px" height="17px" viewBox="0 0 17 17" enable-background="new 0 0 17 17" xml:space="preserve">
	<path opacity="0.2" d="M16.622,14.771C16.874,15.023,17,15.33,17,15.691c0,0.354-0.128,0.661-0.389,0.921
	C16.352,16.869,16.046,17,15.694,17c-0.37,0-0.676-0.131-0.92-0.388l-3.504-3.495c-1.22,0.844-2.58,1.267-4.077,1.267
	c-0.974,0-1.906-0.188-2.794-0.566c-0.889-0.379-1.655-0.89-2.299-1.532c-0.644-0.645-1.155-1.41-1.532-2.3
	C0.188,9.096,0,8.166,0,7.192c0-0.974,0.188-1.904,0.567-2.794c0.377-0.89,0.889-1.655,1.532-2.3
	c0.644-0.643,1.41-1.152,2.299-1.532C5.286,0.188,6.218,0,7.192,0c0.974,0,1.906,0.188,2.794,0.566
	c0.889,0.38,1.655,0.89,2.299,1.532c0.645,0.645,1.155,1.41,1.532,2.3s0.566,1.82,0.566,2.794c0,1.499-0.421,2.858-1.265,4.077
	L16.622,14.771L16.622,14.771z M10.426,10.425c0.896-0.896,1.341-1.974,1.341-3.233s-0.446-2.338-1.341-3.232
	C9.53,3.062,8.452,2.616,7.192,2.616c-1.261,0-2.338,0.446-3.234,1.344C3.063,4.854,2.616,5.933,2.616,7.192
	s0.448,2.337,1.342,3.233c0.896,0.897,1.974,1.343,3.234,1.343C8.452,11.768,9.53,11.322,10.426,10.425z"/>
</svg>
